<svg width="590" height="533" viewBox="0 0 590 533" fill="none" xmlns="http://www.w3.org/2000/svg">
<path d="M417.837 257.501C407.005 268.142 372.183 278.379 372.183 278.379C369.909 277.482 367.628 276.511 365.385 275.494C350.821 268.895 337.764 260.514 337.764 260.514C337.764 260.514 331.358 254.584 333.737 246.242C333.737 246.242 338.288 235.725 346.744 236.849C355.201 237.974 394.605 236.413 394.605 236.413C394.605 236.413 405.667 225.767 414.01 228.379C422.356 230.988 428.67 246.852 417.837 257.501Z" fill="#006DC3"/>
<path d="M359.339 258.264C362.801 260.204 364.465 263.818 363.054 266.337C361.643 268.855 357.692 269.323 354.229 267.383C350.766 265.443 349.103 261.828 350.514 259.31C351.924 256.792 355.876 256.323 359.339 258.264Z" fill="white"/>
<path d="M357.744 269.498C356.43 269.375 355.059 268.958 353.755 268.228C351.903 267.19 350.45 265.677 349.663 263.968C348.828 262.154 348.83 260.331 349.668 258.836C350.506 257.34 352.06 256.387 354.043 256.152C355.911 255.932 357.961 256.38 359.812 257.418C363.736 259.616 365.569 263.83 363.9 266.81C362.784 268.8 360.383 269.745 357.744 269.498ZM355.624 258.065C355.163 258.021 354.71 258.025 354.271 258.077C352.92 258.237 351.886 258.843 351.359 259.783C350.833 260.723 350.856 261.922 351.424 263.158C352.041 264.497 353.205 265.698 354.703 266.537C357.694 268.212 361.061 267.91 362.208 265.862C363.355 263.814 361.856 260.785 358.865 259.109C357.816 258.521 356.701 258.165 355.624 258.065Z" fill="#2D2A2A"/>
<path d="M343.916 249.511C343.383 249.461 342.992 248.989 343.041 248.457C343.09 247.924 343.562 247.531 344.095 247.581C344.421 247.611 376.926 250.518 395.82 244.999C396.334 244.849 396.871 245.144 397.021 245.658C397.172 246.172 396.877 246.71 396.363 246.861C377.113 252.483 345.264 249.635 343.917 249.511L343.916 249.511Z" fill="#2D2A2A"/>
<path d="M417.837 257.501C407.005 268.142 372.183 278.379 372.183 278.379C369.909 277.482 367.628 276.511 365.385 275.494C381.231 271.795 404.587 258.669 404.587 258.669C389.38 251.046 394.605 236.413 394.605 236.413C394.605 236.413 405.667 225.767 414.01 228.379C422.356 230.988 428.669 246.852 417.837 257.501Z" fill="white"/>
<path d="M372.093 279.345C372.002 279.336 371.913 279.315 371.827 279.281C369.609 278.406 367.307 277.429 364.985 276.377C364.607 276.205 364.379 275.812 364.42 275.399C364.461 274.986 364.76 274.644 365.164 274.55C378.365 271.469 397.1 261.633 402.564 258.673C388.725 250.557 393.639 236.236 393.692 236.087C393.743 235.946 393.825 235.818 393.933 235.714C394.402 235.263 405.506 224.702 414.299 227.454C418.77 228.851 422.574 233.544 423.99 239.408C425.652 246.292 423.657 253.138 418.516 258.193C407.636 268.881 373.887 278.888 372.456 279.309C372.338 279.345 372.214 279.356 372.093 279.345ZM368.323 275.735C369.643 276.305 370.949 276.847 372.227 277.355C375.741 276.295 407.167 266.625 417.158 256.81C421.801 252.245 423.604 246.069 422.106 239.863C420.865 234.728 417.495 230.484 413.721 229.304C406.546 227.058 396.846 235.664 395.447 236.952C394.868 238.789 391.589 251.069 405.021 257.802C405.342 257.963 405.548 258.287 405.556 258.645C405.564 259.004 405.374 259.337 405.062 259.513C404.841 259.638 383.951 271.325 368.323 275.735ZM417.837 257.501L417.842 257.501L417.837 257.501Z" fill="#2D2A2A"/>
<path d="M323.166 245.772L338.26 252.939C338.26 252.939 347.338 251.036 345.774 240.587L331.019 230.678L323.166 245.772Z" fill="white"/>
<path d="M338.169 253.904C338.057 253.894 337.947 253.864 337.844 253.815L322.751 246.648C322.513 246.535 322.331 246.33 322.247 246.081C322.163 245.831 322.185 245.559 322.306 245.325L330.159 230.231C330.286 229.986 330.511 229.807 330.779 229.739C331.046 229.67 331.33 229.719 331.559 229.874L346.314 239.783C346.541 239.934 346.693 240.175 346.733 240.444C348.412 251.668 338.558 253.867 338.458 253.888C338.363 253.908 338.265 253.913 338.169 253.904ZM324.49 245.328L338.359 251.914C339.816 251.499 345.875 249.272 344.873 241.15L331.378 232.087L324.49 245.328Z" fill="#2D2A2A"/>
<path d="M337.165 221.917C337.165 221.917 335.459 241.591 320.061 251.284L250.362 215.875C220.271 198.92 227.686 169.264 256.012 162.671C257.68 162.283 263.733 166.621 271.771 172.284C295.581 189.057 337.165 221.917 337.165 221.917Z" fill="#006DC3"/>
<path d="M321.401 233.847C321.242 233.844 321.082 233.801 320.935 233.716L253.303 194.369L253.141 192.391C253.399 192.312 253.678 192.344 253.912 192.48L321.91 232.04C322.372 232.309 322.529 232.902 322.26 233.365C322.076 233.681 321.742 233.854 321.401 233.847Z" fill="#2D2A2A"/>
<path d="M316.981 244.271C316.666 244.265 316.361 244.105 316.18 243.82C315.895 243.367 316.03 242.769 316.483 242.483C326.629 236.076 329.248 221.429 329.273 221.282C329.364 220.755 329.861 220.399 330.392 220.49C330.919 220.581 331.274 221.081 331.185 221.608C331.076 222.243 328.404 237.248 317.518 244.122C317.351 244.228 317.165 244.275 316.981 244.271Z" fill="#2D2A2A"/>
<path d="M248.831 215.676C248.831 215.676 169.675 244.915 142.648 254.517C115.626 264.123 49.1324 223.483 101.886 198.059C101.886 198.059 197.748 174.614 238.425 165.887C248.2 163.785 254.787 162.538 256.095 162.669C256.339 162.693 256.886 163.109 257.644 163.803C259.801 165.778 262.141 168.15 264.374 170.847C277.637 186.869 286.335 200.67 248.831 215.676Z" fill="#006DC3"/>
<path d="M252.425 194.269L138.2 225.643C137.683 225.784 137.15 225.48 137.009 224.964C136.868 224.447 137.173 223.914 137.689 223.773L252.323 192.288C252.583 192.217 252.862 192.257 253.091 192.4L252.425 194.269Z" fill="#2D2A2A"/>
<path d="M250.263 210.868C250.231 210.867 250.2 210.865 250.168 210.861C249.637 210.801 249.258 210.372 249.323 209.903L252.997 183.281C253.062 182.812 253.547 182.482 254.076 182.541C254.608 182.602 254.986 183.03 254.921 183.499L251.247 210.122C251.186 210.562 250.755 210.881 250.263 210.868Z" fill="#2D2A2A"/>
<path d="M321.111 232.747L252.595 193.145" stroke="#2D2A2A" stroke-width="4" stroke-linecap="round" stroke-linejoin="round"/>
<path d="M274.364 528.567C259.196 529.279 226.415 513.698 226.415 513.698C225.318 511.513 224.266 509.268 223.271 507.015C216.814 492.388 212.668 477.437 212.668 477.437C212.668 477.437 211.845 468.747 219.179 464.114C219.179 464.114 229.582 459.308 235.136 465.784C240.69 472.259 271.104 497.361 271.104 497.361C271.104 497.361 286.446 496.8 290.923 504.308C295.406 511.816 289.537 527.85 274.364 528.567Z" fill="#006DC3"/>
<path d="M230.249 490.14C231.537 493.895 230.367 497.699 227.637 498.636C224.907 499.572 221.65 497.286 220.362 493.532C219.074 489.777 220.244 485.975 222.974 485.038C225.704 484.102 228.961 486.386 230.249 490.14Z" fill="white"/>
<path d="M226.676 499.802C223.773 499.97 220.716 497.551 219.445 493.847C218.756 491.839 218.681 489.742 219.235 487.944C219.821 486.035 221.038 484.678 222.659 484.122C224.28 483.564 226.074 483.89 227.709 485.037C229.249 486.118 230.477 487.818 231.166 489.826C231.855 491.835 231.93 493.931 231.377 495.729C230.79 497.639 229.574 498.996 227.952 499.552C227.534 499.695 227.107 499.777 226.676 499.802ZM224.068 485.803C223.801 485.818 223.54 485.869 223.288 485.955C222.269 486.305 221.487 487.213 221.087 488.514C220.654 489.923 220.721 491.594 221.279 493.217C222.391 496.461 225.103 498.478 227.323 497.719C228.342 497.369 229.124 496.461 229.524 495.16C229.957 493.75 229.89 492.079 229.333 490.456C228.776 488.832 227.804 487.471 226.595 486.624C225.757 486.036 224.884 485.756 224.068 485.803Z" fill="#2D2A2A"/>
<path d="M262.508 508.214C262.35 508.223 262.187 508.195 262.035 508.121C243.938 499.481 222.095 476.127 221.174 475.137C220.809 474.745 220.831 474.132 221.223 473.767C221.615 473.402 222.229 473.425 222.593 473.817C222.816 474.057 245.108 497.891 262.87 506.372C263.353 506.602 263.558 507.181 263.327 507.665C263.169 507.995 262.849 508.195 262.508 508.214Z" fill="#2D2A2A"/>
<path d="M270.134 500.167C269.959 500.177 269.778 500.141 269.613 500.05C252.315 490.581 230.44 469.036 230.221 468.819C229.84 468.443 229.837 467.829 230.213 467.449C230.59 467.068 231.203 467.064 231.584 467.441C231.801 467.656 253.486 489.012 270.544 498.349C271.014 498.607 271.186 499.196 270.929 499.666C270.762 499.97 270.457 500.149 270.134 500.167Z" fill="#2D2A2A"/>
<path d="M274.364 528.567C259.196 529.279 226.415 513.698 226.415 513.698C225.318 511.513 224.266 509.268 223.271 507.015C237.548 514.821 263.709 520.605 263.709 520.605C257.455 504.786 271.104 497.361 271.104 497.361C271.104 497.361 286.446 496.8 290.923 504.308C295.406 511.816 289.537 527.85 274.364 528.567Z" fill="white"/>
<path d="M274.644 529.523C274.566 529.528 274.489 529.531 274.41 529.535C259.174 530.25 227.346 515.213 225.999 514.573C225.804 514.48 225.645 514.325 225.549 514.132C224.476 511.997 223.412 509.734 222.384 507.406C222.217 507.026 222.31 506.582 222.615 506.301C222.921 506.021 223.372 505.965 223.736 506.164C235.632 512.669 256.153 517.825 262.198 519.26C257.293 503.985 270.501 496.585 270.64 496.51C270.772 496.439 270.916 496.399 271.068 496.392C271.718 496.368 287.039 495.901 291.756 503.811C294.157 507.832 293.865 513.866 291.011 519.181C287.699 525.353 281.741 529.113 274.644 529.523ZM274.319 527.598C280.824 527.312 286.284 523.89 289.303 518.265C291.802 513.61 292.119 508.2 290.092 504.805C286.242 498.351 273.273 498.296 271.371 498.324C269.715 499.307 259.086 506.275 264.611 520.248C264.743 520.582 264.679 520.961 264.447 521.234C264.214 521.507 263.85 521.629 263.5 521.551C263.252 521.496 239.89 516.283 225.301 509.153C225.904 510.457 226.517 511.731 227.132 512.963C230.457 514.516 260.329 528.255 274.319 527.598Z" fill="#2D2A2A"/>
<path d="M211.133 457.865L217.607 473.268C217.607 473.268 225.642 477.901 231.442 469.07L227.048 451.848L211.133 457.865Z" fill="white"/>
<path d="M223.207 475.415C219.808 475.611 217.171 474.136 217.123 474.108C216.939 474.002 216.795 473.839 216.713 473.644L210.24 458.24C210.138 457.998 210.139 457.724 210.243 457.482C210.347 457.241 210.545 457.051 210.791 456.958L226.706 450.941C226.964 450.844 227.251 450.861 227.496 450.988C227.74 451.115 227.919 451.34 227.987 451.608L232.381 468.83C232.448 469.094 232.402 469.374 232.252 469.602C229.417 473.919 226.046 475.251 223.207 475.415ZM218.365 472.57C219.727 473.232 225.727 475.61 230.396 468.888L226.377 453.137L212.416 458.416L218.365 472.57Z" fill="#2D2A2A"/>
<path d="M159.734 351.829L66.9779 255.309C66.9779 255.309 47.1834 217.884 74.3725 201.048C101.562 184.212 126.035 216.946 126.035 216.946L189.941 310.421L201.519 327.351C193.571 345.264 187.216 364.728 168.996 357.637L159.734 351.829Z" fill="#006DC3"/>
<path d="M135.23 238.274L138.127 220.467L121.686 194.393" fill="#006DC3"/>
<path d="M147.468 249.212C147.146 249.224 146.826 249.075 146.631 248.79L125.235 217.494C125.196 217.443 118.824 209.011 109.192 203.07C108.736 202.788 108.595 202.191 108.876 201.736C109.156 201.28 109.753 201.138 110.209 201.419C120.167 207.562 126.545 216.01 126.811 216.366L148.232 247.696C148.534 248.138 148.42 248.741 147.978 249.043C147.821 249.15 147.645 249.205 147.468 249.212Z" fill="#2D2A2A"/>
<path d="M136.693 233.452C136.627 233.454 136.56 233.45 136.492 233.438C135.965 233.347 135.61 232.847 135.701 232.319L137.2 223.58C137.551 221.539 137.112 219.466 135.965 217.742L121.88 196.589C121.584 196.144 121.704 195.542 122.15 195.245C122.596 194.948 123.198 195.069 123.494 195.515L137.578 216.667C139.001 218.806 139.546 221.376 139.111 223.908L137.612 232.646C137.533 233.107 137.142 233.435 136.693 233.452Z" fill="#2D2A2A"/>
<path d="M169.393 347.796L75.5074 243.66C75.1486 243.263 75.1806 242.65 75.5783 242.292C75.9755 241.933 76.5887 241.964 76.947 242.362L170.958 346.637C171.04 346.728 171.105 346.834 171.147 346.95C171.389 347.604 169.393 347.796 169.393 347.796Z" fill="#2D2A2A"/>
<path d="M236.332 448.619C224.423 467.802 203.119 459.85 203.119 459.85C190.193 433.488 159.735 351.829 159.735 351.829L181.125 340.528L201.519 327.351L208.314 351.012L236.332 448.619Z" fill="#006DC3"/>
<path d="M211.643 454.158C206.89 454.332 203.441 453.586 203.124 453.514C202.602 453.396 202.275 452.879 202.392 452.357C202.51 451.835 203.028 451.506 203.55 451.623C203.719 451.66 220.444 455.25 231.293 444.059C231.666 443.675 232.279 443.666 232.663 444.039C233.048 444.411 233.057 445.024 232.684 445.409C226.13 452.169 217.794 453.934 211.643 454.158Z" fill="#2D2A2A"/>
<path d="M170.135 347.574L208.059 446.579" stroke="#2D2A2A" stroke-width="5" stroke-linecap="round" stroke-linejoin="round"/>
<path d="M161.694 352.406C161.327 352.419 160.968 352.222 160.792 351.872C160.552 351.393 160.746 350.811 161.224 350.571L177.733 342.29C178.212 342.05 178.795 342.243 179.035 342.722C179.275 343.2 179.081 343.783 178.603 344.023L162.093 352.304C161.964 352.368 161.829 352.401 161.694 352.406Z" fill="#2D2A2A"/>
<path d="M84.4222 67.7978C84.4222 67.7978 161.397 105.45 165.847 124.418C170.296 143.386 139.681 148.572 111.675 125.144C83.6694 101.716 84.4222 67.7978 84.4222 67.7978Z" fill="#FFB400"/>
<path d="M145.722 120.261C143.015 122.08 144.103 127.555 147.012 133.863C149.921 140.171 164.303 137.481 165.366 134.818C166.428 132.155 163.794 123.326 161.534 121.183C159.275 119.039 149.079 118.006 145.722 120.261Z" fill="white"/>
<path d="M159.966 138.317C158.569 138.571 157.094 138.706 155.704 138.701C150.854 138.685 147.456 137.101 146.137 134.242C143.657 128.864 141.474 121.933 145.165 119.453C148.823 116.995 159.602 118.041 162.186 120.492C164.671 122.85 167.526 132.04 166.264 135.203C165.687 136.65 163.014 137.765 159.966 138.317ZM146.28 121.069C144.311 122.393 144.912 127.034 147.887 133.484C149.245 136.429 153.763 136.762 155.643 136.769C160.195 136.785 164.144 135.241 164.466 134.433C165.333 132.259 162.922 123.807 160.883 121.872C159.033 120.118 149.393 118.978 146.28 121.069Z" fill="#2D2A2A"/>
<path d="M138.946 121.819C135.128 123.202 139.031 132.098 141.069 136.258C143.108 140.418 149.901 140.833 148.387 134.931C146.872 129.029 143.496 120.17 138.946 121.819Z" fill="white"/>
<path d="M146.665 140.269C144.489 140.664 141.555 139.414 140.205 136.659C136.914 129.945 135.733 125.28 136.697 122.794C137.05 121.882 137.704 121.229 138.589 120.909C139.767 120.482 140.948 120.582 142.098 121.206C146.036 123.342 148.462 131.37 149.322 134.722C150.349 138.728 147.974 139.872 147.221 140.126C147.042 140.187 146.856 140.234 146.665 140.269ZM139.302 122.729C138.918 122.869 138.663 123.128 138.501 123.547C137.771 125.432 139.023 129.918 141.933 135.858C142.895 137.819 145.161 138.762 146.543 138.293C147.918 137.828 147.702 136.118 147.451 135.14C146.174 130.162 143.867 124.332 141.224 122.897C140.572 122.544 139.961 122.489 139.302 122.729Z" fill="#2D2A2A"/>
<path d="M69.2315 268.524C69.2315 268.524 96.0486 221.998 161.638 179.672L122.866 151.239C122.866 151.239 113.819 107.539 84.417 67.798C84.417 67.798 59.2152 61.4171 44.6758 62.7091C30.1363 64.0017 9.45825 95.0192 9.45825 95.0192C9.45825 95.0192 23.0284 180.648 31.4288 209.081C39.8293 237.514 69.2315 268.524 69.2315 268.524Z" fill="#FFB400"/>
<path d="M63.931 112.171C63.4769 112.171 63.0824 112.113 62.7887 111.982C62.1993 111.72 61.69 111.494 58.1443 98.817C56.4499 92.7598 54.8695 86.6838 54.854 86.6232C54.7193 86.1051 55.0294 85.5759 55.5475 85.4411C56.0666 85.3074 56.5953 85.6175 56.7301 86.1351C59.462 96.6438 62.7693 108.356 63.7449 110.236C64.4147 110.281 66.345 109.966 67.8595 109.118C68.6534 108.673 69.154 108.174 69.2699 107.711C69.5733 106.25 66.4352 94.6926 63.2258 84.3647C63.0669 83.8534 63.3528 83.3106 63.8641 83.1516C64.3754 82.9932 64.9187 83.2786 65.0777 83.7894C66.6596 88.8812 71.7736 105.688 71.1503 108.181C70.8712 109.299 69.9038 110.29 68.3534 111.046C67.0419 111.686 65.2395 112.171 63.931 112.171Z" fill="#2D2A2A"/>
<path d="M66.3246 254.306C66.1167 254.306 65.9064 254.24 65.7295 254.102C65.3068 253.773 65.2312 253.165 65.5598 252.742C65.9757 252.207 107.627 199.056 149.979 177.477C150.455 177.235 151.039 177.424 151.283 177.902C151.525 178.378 151.336 178.962 150.859 179.205C108.887 200.589 67.5028 253.402 67.0899 253.932C66.8989 254.178 66.6135 254.306 66.3246 254.306Z" fill="#2D2A2A"/>
<path d="M115.594 127.911C115.197 127.911 114.825 127.666 114.682 127.271C109.741 113.604 100.94 93.1214 87.0686 73.1591C86.7628 72.7201 86.8718 72.1157 87.3114 71.8104C87.7505 71.5041 88.3548 71.6131 88.6606 72.0532C102.651 92.1874 111.525 112.836 116.505 126.613C116.687 127.116 116.427 127.672 115.923 127.853C115.815 127.893 115.703 127.911 115.594 127.911Z" fill="#2D2A2A"/>
<path d="M68.1794 71.3117C67.8208 76.7688 63.1051 80.995 63.1051 80.995C62.1164 77.9998 58.9856 73.0322 55.753 68.9369C55.753 68.9369 54.4154 76.2212 53.5479 82.3568C49.976 83.108 35.5722 83.0208 31.5593 74.6218C31.5593 74.6218 32.2233 56.5299 49.4865 55.2552C56.9162 54.7028 65.8095 61.5654 68.1794 71.3117Z" fill="white"/>
<path d="M49.6298 83.6314C43.642 83.6314 34.0227 82.0263 30.6844 75.0396C30.6165 74.8981 30.5841 74.7425 30.5904 74.586C30.5972 74.3965 31.4933 55.6119 49.4146 54.2884C57.7327 53.6724 66.7568 61.3604 69.1209 71.0824C69.1437 71.1784 69.1524 71.2768 69.1461 71.3752C68.7657 77.1599 63.956 81.5334 63.7515 81.7166C63.5082 81.9352 63.1714 82.0161 62.8549 81.9313C62.5389 81.847 62.2869 81.609 62.1842 81.2988C61.4048 78.9371 59.128 75.0701 56.3189 71.2739C55.8575 73.8963 55.0768 78.4646 54.5073 82.492C54.4501 82.8962 54.1463 83.2214 53.7469 83.3053C52.8692 83.4899 51.4099 83.6314 49.6298 83.6314ZM32.5421 74.4231C36.1944 81.5571 48.5854 82.0452 52.6884 81.5164C53.5487 75.5868 54.786 68.8317 54.7991 68.7614C54.8679 68.3868 55.1495 68.0873 55.5188 67.9957C55.8886 67.9031 56.2773 68.0369 56.5133 68.3359C59.0548 71.5559 61.9893 75.9304 63.4544 79.2337C64.761 77.7463 66.9216 74.8099 67.2008 71.3941C64.7736 61.7074 56.1411 55.7307 49.5581 56.2216C42.7638 56.7232 37.8378 59.9617 34.9168 65.8472C33.0044 69.7012 32.6128 73.4635 32.5421 74.4231Z" fill="#2D2A2A"/>
<path d="M90.3702 153.186L98.4078 150.813C98.4078 150.813 110.13 139.979 112.348 138.069C114.566 136.159 129.766 146.346 130.5 147.785C131.233 149.225 130.143 151.249 128.614 151.557C128.614 151.557 131.88 157.29 128.673 163.947C125.465 170.604 114.275 162.345 114.275 162.345C114.275 162.345 109.407 171.009 105.66 171.341C101.913 171.673 92.8167 167.878 92.8167 167.878L90.3702 153.186Z" fill="white"/>
<path d="M128.447 152.512C128.323 152.49 128.2 152.444 128.087 152.371L115.925 144.517C115.476 144.226 115.347 143.626 115.637 143.176C115.927 142.727 116.528 142.598 116.977 142.888L129.139 150.742C129.589 151.033 129.718 151.633 129.427 152.083C129.21 152.419 128.819 152.577 128.447 152.512Z" fill="#2D2A2A"/>
<path d="M103.011 172.111C98.6701 171.356 92.7502 168.901 92.4429 168.772C92.1352 168.644 91.9149 168.366 91.86 168.037L89.4136 153.346C89.3333 152.862 89.6255 152.396 90.0953 152.257L97.9157 149.947C99.4078 148.569 109.627 139.133 111.715 137.335C112.253 136.872 113.047 136.752 114.13 136.965C118.93 137.91 130.54 145.731 131.363 147.345C131.835 148.273 131.817 149.404 131.311 150.45C130.985 151.124 130.495 151.678 129.917 152.05C130.751 154.056 132.18 158.9 129.545 164.368C128.791 165.933 127.601 166.928 126.008 167.323C122.062 168.301 116.685 165.126 114.583 163.736C113.132 166.128 109.233 171.997 105.745 172.307C104.988 172.374 104.045 172.29 103.011 172.111ZM93.6835 167.186C96.4918 168.318 102.87 170.615 105.574 170.376C107.933 170.167 111.645 165.048 113.43 161.87C113.566 161.628 113.8 161.456 114.071 161.398C114.343 161.339 114.627 161.4 114.851 161.565C116.694 162.924 122.209 166.268 125.543 165.44C126.562 165.187 127.3 164.562 127.799 163.526C130.735 157.434 127.892 152.252 127.77 152.034C127.618 151.764 127.604 151.436 127.733 151.154C127.862 150.872 128.118 150.668 128.422 150.607C128.873 150.516 129.311 150.132 129.566 149.606C129.802 149.118 129.828 148.602 129.635 148.225C128.423 146.484 114.867 137.981 112.945 138.828C110.801 140.681 99.1822 151.417 99.065 151.525C98.9559 151.626 98.8249 151.7 98.6818 151.742L91.4666 153.873L93.6835 167.186Z" fill="#2D2A2A"/>
<path d="M41.2717 201.322C40.4627 201.829 26.0713 221.845 18.0574 209.291C13.2418 201.741 8.9388 189.293 5.46183 169.892C-3.78673 118.246 9.45653 95.0176 9.45653 95.0176C18.6301 90.5811 40.5695 97.971 42.0821 119.345C43.5947 140.719 49.7167 164.969 49.7167 164.969C49.7167 164.969 57.6245 191.1 41.2717 201.322Z" fill="#FFB400"/>
<path d="M50.0543 165.877C49.7949 165.967 49.5096 165.955 49.2659 165.826C49.0221 165.698 48.8441 165.473 48.7772 165.206C48.7156 164.963 42.6163 140.627 41.1153 119.413C40.4548 110.077 35.8442 104.314 32.0934 101.123C26.9715 96.7657 19.8828 94.29 14.0372 94.8224C13.5026 94.8688 13.0328 94.4777 12.984 93.9445C12.9356 93.4113 13.3291 92.9402 13.8618 92.8918C20.2979 92.3097 27.766 94.8967 33.3494 99.6462C37.3835 103.078 42.3407 109.269 43.0492 119.277C44.3612 137.822 49.2232 158.8 50.3997 163.68C50.3997 163.68 50.9016 165.582 50.0543 165.877Z" fill="#2D2A2A"/>
<path d="M99.1353 170.814C99.1353 170.814 63.128 204.921 46.4862 214.665C45.6629 215.148 44.8867 215.57 44.1626 215.927C34.6056 220.64 25.1453 221.32 17.4981 208.539C7.4431 178.504 49.532 165.777 49.532 165.777L92.1666 151.004L99.1353 170.814Z" fill="#FFB400"/>
<path d="M46.5319 214.12C46.5215 214.304 46.5066 214.483 46.4865 214.666C45.6632 215.148 44.8869 215.571 44.1629 215.928C34.6059 220.641 25.1455 221.32 17.4984 208.539C19.7513 203.628 25.5934 200.317 32.2419 200.692C40.5259 201.16 46.9242 207.171 46.5319 214.12Z" fill="white"/>
<path d="M48.9033 214.103C48.6052 214.086 48.3187 213.933 48.1437 213.663C47.852 213.214 47.9801 212.614 48.429 212.323C64.5162 201.879 93.9882 174.326 98.0119 170.542L91.5701 152.23L49.996 166.589C49.7357 166.677 49.4498 166.65 49.2094 166.516C48.9694 166.38 48.7985 166.15 48.7389 165.881C48.6897 165.66 48.4751 164.956 49.8756 164.533C50.371 164.383 50.8701 164.246 51.36 164.08L91.8552 150.086C92.3575 149.916 92.9051 150.182 93.0812 150.682L100.05 170.493C100.176 170.854 100.079 171.255 99.8018 171.518C99.4741 171.829 66.8362 202.684 49.4843 213.949C49.3049 214.066 49.1017 214.114 48.9033 214.103Z" fill="#2D2A2A"/>
<path d="M86.8929 175.623C86.5803 175.605 86.2816 175.437 86.1111 175.146C81.2937 166.954 81.769 157.451 81.7916 157.051C81.8217 156.516 82.2792 156.108 82.8135 156.138L82.8139 156.138C83.3477 156.168 83.7563 156.626 83.7271 157.159C83.7219 157.252 83.2698 166.49 87.7821 174.164C88.0536 174.625 87.8992 175.219 87.4378 175.491C87.267 175.592 87.0773 175.633 86.8929 175.623Z" fill="#2D2A2A"/>
<path d="M94.2689 168.192C94.1859 169.662 92.9273 170.786 91.4573 170.703C89.9873 170.62 88.8632 169.361 88.9462 167.891C89.0292 166.421 90.2877 165.297 91.7578 165.38C93.2278 165.463 94.3518 166.722 94.2689 168.192Z" fill="white"/>
<path d="M91.4027 171.67C89.4014 171.557 87.8655 169.838 87.9785 167.836C88.0915 165.835 89.8111 164.299 91.8124 164.412C93.8138 164.525 95.3496 166.245 95.2367 168.246C95.1237 170.248 93.404 171.783 91.4027 171.67ZM91.7032 166.348C90.7693 166.295 89.9667 167.012 89.914 167.946C89.8613 168.88 90.5781 169.682 91.512 169.735C92.4458 169.788 93.2484 169.071 93.3011 168.137C93.3539 167.203 92.6371 166.401 91.7032 166.348Z" fill="#2D2A2A"/>
<path d="M34.451 194.422C34.375 194.417 34.2981 194.404 34.2217 194.381C33.7102 194.224 33.4213 193.683 33.5779 193.171C33.7507 192.605 37.9194 179.166 47.6379 167.877C47.987 167.472 48.5993 167.426 49.0048 167.775C49.4103 168.124 49.4564 168.736 49.1068 169.142C39.6635 180.112 35.4734 193.602 35.4318 193.737C35.299 194.172 34.8865 194.446 34.451 194.422Z" fill="#2D2A2A"/>
<path d="M39.7222 33.9346L40.0282 44.5713L40.5491 62.7665C46.68 67.0307 52.6338 67.4695 58.3666 63.1442L57.5064 54.6933L56.204 41.8934L39.7222 33.9346Z" fill="white"/>
<path d="M49.5367 67.1431C46.4478 67.0269 43.2612 65.8332 39.9959 63.5619C39.7435 63.3866 39.5893 63.1014 39.5805 62.7941L38.7536 33.9622C38.744 33.6238 38.9117 33.3047 39.1955 33.1204C39.4799 32.9366 39.8395 32.9152 40.144 33.0615L56.6258 41.0203C56.9292 41.1666 57.1345 41.4599 57.1689 41.7954L59.3305 63.0461C59.3649 63.383 59.2206 63.7137 58.95 63.9179C55.9381 66.1907 52.7918 67.2655 49.5367 67.1431ZM41.5043 62.2437C47.2027 66.0528 52.3944 66.2 57.3458 62.6897L55.2949 42.5305L40.7375 35.5005L41.5043 62.2437Z" fill="#2D2A2A"/>
<path d="M72.1061 35.5878C70.9994 44.3131 68.1935 54.7105 57.7391 52.8131C45.3115 50.5566 37.4701 41.529 37.6595 29.6523C37.8487 17.7761 43.4946 11.2204 57.6788 12.9451C58.9448 13.0993 60.1328 13.3466 61.2438 13.6758C69.3687 16.0904 73.3102 22.9766 72.5965 30.9187C72.4677 32.3539 72.3194 33.942 72.1061 35.5878Z" fill="white"/>
<path d="M59.4634 53.9908C58.8487 53.9595 58.2157 53.8855 57.5652 53.767C52.4953 52.8467 47.9817 50.7667 44.512 47.7523C44.1077 47.4013 44.0651 46.7886 44.4156 46.3847C44.7667 45.9809 45.3789 45.9368 45.7832 46.2884C48.9903 49.0744 53.1841 51.0013 57.9116 51.8601C60.7857 52.3804 63.114 51.951 65.032 50.5447C69.1821 47.503 70.5079 40.4821 71.144 35.4661C71.3558 33.8303 71.5002 32.2804 71.6306 30.8322C72.3355 22.9872 68.2494 16.7692 60.9673 14.6051C60.4539 14.4523 60.1615 13.9124 60.3143 13.3995C60.4666 12.886 61.0069 12.5957 61.5194 12.7469C69.7395 15.1897 74.3537 22.1858 73.5615 31.0052C73.4353 32.408 73.2826 34.0448 73.0667 35.7124C72.386 41.0813 70.9307 48.6242 66.1783 52.1079C64.2911 53.4915 62.0384 54.1218 59.4634 53.9908Z" fill="#2D2A2A"/>
<path d="M33.8896 31.7884C33.8896 31.7884 35.606 34.4874 37.8012 36.7707L44.0842 37.3228L45.5402 32.9028C45.5402 32.9028 49.5383 32.8271 50.4333 30.1537C50.4333 30.1537 51.6428 25.1708 51.2036 19.0373C51.2036 19.0373 56.2009 3.50992 45.6032 4.8512C32.6771 6.48749 35.6536 15.4384 35.6536 15.4384C35.6536 15.4384 26.1061 18.238 33.8896 31.7884Z" fill="#2D2A2A"/>
<path d="M42.734 36.6097C43.4005 31.6632 40.0324 26.9671 35.0899 26.2697C34.0843 26.1278 33.0277 26.1502 31.9453 26.413C25.7593 27.9142 27.0049 42.2617 42.0674 41.5557L42.734 36.6097Z" fill="white"/>
<path d="M39.9446 42.5221C32.3053 42.1334 28.2375 37.6444 27.5763 33.0331C27.0492 29.3614 28.7906 26.1812 31.7166 25.4711C32.8506 25.1954 34.0316 25.142 35.2256 25.3095C40.6417 26.0737 44.4411 31.2017 43.6944 36.7396C43.6233 37.2707 43.131 37.646 42.6044 37.5707C42.0738 37.4991 41.7017 37.0109 41.7733 36.4807C42.3781 31.9955 39.3189 27.8456 34.9546 27.2295C34.0045 27.0958 33.0691 27.1379 32.1739 27.3549C30.24 27.8243 29.1131 30.0963 29.495 32.7581C30.0485 36.6146 33.6602 40.979 42.022 40.5877C42.5533 40.5594 43.0102 40.9757 43.0354 41.5103C43.0606 42.0449 42.6473 42.4985 42.1123 42.5232C41.3602 42.5587 40.6377 42.5573 39.9446 42.5221Z" fill="#2D2A2A"/>
<path d="M42.9661 17.1818C47.8695 18.3232 52.6769 19.8441 57.3689 21.6692C60.2297 22.7819 63.5172 23.893 65.9063 24.2072C67.6445 24.4368 69.6751 23.8801 71.6112 23.0343C75.7812 21.2122 79.4094 16.0548 79.4516 11.5046C79.4573 10.9167 79.4224 10.3234 79.3395 9.73105C78.3851 3.09827 74.8269 7.58512 74.8269 7.58512C74.8269 7.58512 73.9787 2.24275 70.6585 1.7749C67.3241 1.30828 65.0902 6.16628 65.0902 6.16628C65.0902 6.16628 56.2002 3.51085 45.6029 4.85215C32.6768 6.48844 35.6533 15.4389 35.6533 15.4389C35.6533 15.4389 38.7936 16.2106 42.9661 17.1818Z" fill="#2D2A2A"/>
<path d="M228.767 104.029L181.781 136.322C179 138.232 175.197 137.527 173.287 134.747C171.376 131.967 172.081 128.164 174.861 126.253L221.847 93.9612C224.627 92.0503 228.43 92.755 230.341 95.5354C232.251 98.3153 231.547 102.118 228.767 104.029Z" fill="white"/>
<path d="M178.336 138.367C177.902 138.367 177.466 138.327 177.031 138.247C175.172 137.902 173.558 136.854 172.488 135.296C171.417 133.738 171.017 131.856 171.362 129.998C171.706 128.139 172.753 126.525 174.312 125.454L221.297 93.1616C222.855 92.091 224.737 91.6916 226.596 92.0357C228.455 92.3798 230.068 93.4281 231.139 94.9858C232.21 96.5439 232.61 98.4258 232.265 100.284C231.921 102.144 230.873 103.757 229.315 104.828L182.33 137.12C181.136 137.94 179.753 138.367 178.336 138.367ZM225.295 93.8541C224.266 93.8541 223.262 94.1638 222.395 94.7595L175.41 127.052C173.074 128.657 172.48 131.863 174.085 134.198C174.863 135.329 176.034 136.09 177.384 136.34C178.734 136.591 180.1 136.3 181.231 135.523L228.217 103.23L228.766 104.029L228.217 103.23C229.348 102.453 230.109 101.281 230.359 99.9312C230.609 98.5814 230.319 97.2152 229.541 96.084C228.764 94.9528 227.592 94.1919 226.243 93.9419C225.927 93.8832 225.61 93.8541 225.295 93.8541Z" fill="#2D2A2A"/>
<path d="M185.588 133.704L113.174 183.474C110.394 185.385 106.591 184.68 104.68 181.9C102.769 179.12 103.474 175.317 106.254 173.406L178.668 123.636C181.449 121.725 185.252 122.431 187.163 125.211C189.073 127.991 188.369 131.793 185.588 133.704Z" fill="white"/>
<path d="M109.729 185.52C109.296 185.52 108.86 185.479 108.424 185.399C106.565 185.054 104.952 184.007 103.881 182.449C101.671 179.232 102.489 174.818 105.705 172.607L178.119 122.837C181.336 120.628 185.751 121.445 187.961 124.661C190.172 127.878 189.354 132.293 186.137 134.503L113.723 184.273C112.529 185.093 111.146 185.52 109.729 185.52ZM182.118 123.53C181.088 123.53 180.084 123.839 179.218 124.435L106.803 174.204C104.468 175.809 103.874 179.016 105.479 181.351C106.256 182.482 107.428 183.243 108.778 183.493C110.127 183.743 111.494 183.453 112.625 182.675L185.039 132.906C187.374 131.301 187.969 128.095 186.364 125.759C185.586 124.628 184.415 123.868 183.065 123.617C182.749 123.559 182.432 123.53 182.118 123.53ZM185.588 133.704H185.593H185.588Z" fill="#2D2A2A"/>
<path d="M197.193 20.5345L157.767 47.6312C155.139 49.4375 153.939 52.7074 154.775 55.785L172.672 121.646C173.356 124.163 176.32 125.251 178.469 123.773L217.895 96.6767C220.523 94.8705 221.723 91.6 220.886 88.5225L202.99 22.6616C202.306 20.1448 199.342 19.0573 197.193 20.5345Z" fill="white"/>
<path d="M176.339 125.414C175.787 125.414 175.229 125.317 174.687 125.118C173.221 124.58 172.146 123.408 171.736 121.901L153.84 56.0389C152.897 52.5688 154.255 48.8695 157.218 46.8325L196.643 19.7358L197.193 20.5345L196.643 19.7358C197.93 18.8513 199.509 18.6531 200.975 19.1906C202.441 19.7285 203.516 20.9009 203.926 22.4076L221.822 88.2681C222.765 91.7381 221.408 95.4389 218.444 97.4759L179.019 124.573C178.207 125.129 177.281 125.414 176.339 125.414ZM199.328 20.834C198.771 20.834 198.222 21.0036 197.742 21.3337L158.316 48.4299C156.03 50.0011 154.983 52.8548 155.71 55.531L173.608 121.392C173.85 122.285 174.487 122.979 175.355 123.298C176.224 123.616 177.159 123.499 177.92 122.975L217.346 95.878C219.632 94.3073 220.679 91.4532 219.951 88.7769L202.055 22.916C201.812 22.0238 201.175 21.3293 200.307 21.0104C199.986 20.8926 199.656 20.834 199.328 20.834Z" fill="#2D2A2A"/>
<path d="M201.79 17.3746L162.365 44.4718C159.736 46.2781 158.536 49.5475 159.373 52.6251L177.269 118.486C177.953 121.003 180.917 122.09 183.066 120.614L222.492 93.5173C225.12 91.7105 226.32 88.4406 225.484 85.3631L207.587 19.5022C206.903 16.9854 203.94 15.8974 201.79 17.3746Z" fill="white"/>
<path d="M180.937 122.255C180.384 122.255 179.827 122.156 179.285 121.958C177.819 121.42 176.744 120.247 176.334 118.74L158.437 52.8795C157.494 49.4089 158.852 45.7096 161.816 43.6726L201.241 16.5759C202.527 15.6909 204.107 15.4932 205.572 16.0307C207.038 16.5686 208.113 17.741 208.522 19.2482L226.419 85.1087C227.362 88.5788 226.005 92.279 223.042 94.316L183.616 121.412C182.805 121.969 181.878 122.255 180.937 122.255ZM203.926 17.6746C203.368 17.6746 202.82 17.8437 202.339 18.1738L162.914 45.2705C160.628 46.8413 159.581 49.6954 160.308 52.3716L178.205 118.232C178.447 119.124 179.084 119.819 179.952 120.138C180.82 120.456 181.755 120.338 182.518 119.814L221.943 92.7181C224.228 91.1474 225.276 88.2938 224.549 85.6175L206.652 19.7566C206.409 18.8639 205.772 18.1694 204.904 17.8505C204.583 17.7327 204.253 17.6746 203.926 17.6746ZM201.79 17.3746H201.795H201.79Z" fill="#2D2A2A"/>
<path d="M588.291 318.577L429.649 410.77L269.978 318.583L428.62 226.391L588.291 318.577Z" fill="#006DC3"/>
<path d="M314.231 292.94L328.77 302.148C328.77 302.148 332.626 299.911 337.919 296.839M350.538 289.517C359.59 284.265 368.027 279.369 368.027 279.369L353.487 270.161L350.538 289.517Z" stroke="white" stroke-width="5" stroke-linecap="round" stroke-linejoin="round"/>
<path d="M334.101 355.459C334.101 355.459 358.295 341.163 364.6 337.437M380.577 345.196C386.189 348.541 391.29 351.582 391.29 351.582L361.242 369.999L380.577 345.196Z" stroke="white" stroke-width="5" stroke-linecap="round" stroke-linejoin="round"/>
<path d="M402.921 394.231C402.921 394.231 417.931 385.442 432.093 377.148M447.409 368.18C452.95 364.935 456.717 362.729 456.717 362.729L486.766 380.176L447.409 368.18Z" stroke="white" stroke-width="5" stroke-linecap="round" stroke-linejoin="round"/>
<path d="M459.141 397.139C459.141 397.139 454.626 394.384 449.184 391.064M443.957 387.875C437.116 383.7 430.546 379.692 430.546 379.692L443.957 387.875Z" stroke="white" stroke-width="5" stroke-linecap="round" stroke-linejoin="round"/>
<path d="M298.722 336.073C298.722 336.073 333.628 315.53 362.458 298.563M395.918 278.872C398.529 277.335 400.014 276.461 400.014 276.461L482.404 323.472L395.918 278.872Z" stroke="white" stroke-width="5" stroke-linecap="round" stroke-linejoin="round"/>
<path d="M510.514 364.668L462.533 336.558C462.533 336.558 465.161 334.969 469.317 332.455M497.859 315.192C510.932 307.284 522.63 300.209 522.63 300.209L572.064 327.834L497.859 315.192Z" stroke="white" stroke-width="5" stroke-linecap="round" stroke-linejoin="round"/>
<path d="M499.367 266.284L482.889 275.977C482.889 275.977 477.316 272.687 469.319 267.967M453.552 258.66C434.464 247.393 413.099 234.782 413.099 234.782L453.552 258.66Z" stroke="white" stroke-width="5" stroke-linecap="round" stroke-linejoin="round"/>
<path d="M464.956 246.413C464.956 246.413 462.584 247.714 459.725 249.282M456.979 250.788C453.384 252.759 449.932 254.652 449.932 254.652L456.979 250.788Z" stroke="white" stroke-width="5" stroke-linecap="round" stroke-linejoin="round"/>
<path d="M429.649 410.769L429.495 432.592L269.824 340.406L269.978 318.583L429.649 410.769Z" fill="white"/>
<path d="M429.65 411.739C429.482 411.739 429.314 411.696 429.164 411.609L269.493 319.423C269.194 319.25 269.009 318.931 269.009 318.585C269.008 318.239 269.192 317.919 269.491 317.745L428.134 225.553C428.434 225.378 428.804 225.378 429.105 225.552L588.776 317.738C589.075 317.911 589.26 318.229 589.261 318.576C589.261 318.922 589.077 319.241 588.778 319.415L430.136 411.607C429.985 411.695 429.818 411.739 429.65 411.739ZM271.912 318.58L429.648 409.649L586.358 318.58L428.622 227.511L271.912 318.58Z" fill="#6FC4C6"/>
<path d="M429.341 410.769L429.495 432.592L588.445 340.406L588.291 318.583L429.341 410.769Z" fill="white"/>
<path d="M429.496 433.561C429.33 433.561 429.164 433.519 429.014 433.434C428.714 433.263 428.528 432.944 428.526 432.599L428.371 410.776C428.369 410.428 428.553 410.105 428.855 409.931L587.805 317.744C588.103 317.572 588.472 317.571 588.772 317.742C589.072 317.914 589.258 318.231 589.26 318.577L589.414 340.399C589.416 340.747 589.233 341.071 588.931 341.245L429.981 433.431C429.832 433.518 429.663 433.561 429.496 433.561ZM430.314 411.326L430.452 430.916L587.472 339.85L587.333 320.26L430.314 411.326Z" fill="#2D2A2A"/>
<path d="M345.414 264.602L344.951 319.284L371.016 258.742L371.479 204.061L345.414 264.602Z" fill="#FFB400"/>
<path d="M345.414 264.602L344.951 319.284L371.016 258.742L371.479 204.061L345.414 264.602Z" stroke="#2C2929" stroke-width="3.39481" stroke-linecap="round" stroke-linejoin="round"/>
<path d="M348.127 273.944L347.915 299.031L356.827 278.33L357.04 253.244L348.127 273.944Z" fill="white"/>
<path d="M348.127 273.944L347.915 299.031L356.827 278.33L357.04 253.244L348.127 273.944Z" stroke="#2C2929" stroke-width="3.39481"/>
<path d="M359.955 246.473L359.742 271.56L368.654 250.859L368.867 225.772L359.955 246.473Z" fill="white"/>
<path d="M359.955 246.473L359.742 271.56L368.654 250.859L368.867 225.772L359.955 246.473Z" stroke="#2C2929" stroke-width="3.39481"/>
<path d="M464.383 278.164L463.919 332.845L489.984 272.303L490.448 217.622L464.383 278.164Z" fill="#FFB400"/>
<path d="M464.383 278.164L463.919 332.845L489.984 272.303L490.448 217.622L464.383 278.164Z" stroke="#2C2929" stroke-width="3.39481" stroke-linecap="round" stroke-linejoin="round"/>
<path d="M467.096 287.506L466.883 312.592L475.795 291.891L476.008 266.805L467.096 287.506Z" fill="white"/>
<path d="M467.096 287.506L466.883 312.592L475.795 291.891L476.008 266.805L467.096 287.506Z" stroke="#2C2929" stroke-width="3.39481"/>
<path d="M478.923 260.034L478.71 285.121L487.623 264.42L487.835 239.333L478.923 260.034Z" fill="white"/>
<path d="M478.923 260.034L478.71 285.121L487.623 264.42L487.835 239.333L478.923 260.034Z" stroke="#2C2929" stroke-width="3.39481"/>
<path d="M464.278 278.051L463.814 332.732L344.992 319.188L345.455 264.506L464.278 278.051Z" fill="white"/>
<path d="M464.278 278.051L463.814 332.732L344.992 319.188L345.455 264.506L464.278 278.051Z" stroke="#2C2929" stroke-width="4.57275" stroke-linecap="round" stroke-linejoin="round"/>
<path d="M451.158 292.529L450.945 317.615L410.316 312.984L410.529 287.897L451.158 292.529Z" fill="#006CC2"/>
<path d="M397.241 286.383L397.028 311.469L356.4 306.838L356.612 281.751L397.241 286.383Z" fill="#006CC2"/>
<path d="M490.297 218.152L489.843 271.74L371.02 258.195L371.474 204.608L490.297 218.152Z" fill="white"/>
<path d="M490.297 218.152L489.843 271.74L371.02 258.195L371.474 204.608L490.297 218.152Z" stroke="#2C2929" stroke-width="4.52679" stroke-linecap="round" stroke-linejoin="round"/>
<path d="M477.179 232.311L476.971 256.896L436.342 252.265L436.551 227.68L477.179 232.311Z" fill="#006CC2"/>
<path d="M423.263 226.165L423.054 250.75L382.426 246.119L382.634 221.534L423.263 226.165Z" fill="#006CC2"/>
<path d="M464.42 278.129L490.784 216.892L371.715 203.319L345.35 264.557L464.42 278.129Z" fill="white"/>
<path d="M464.42 278.129L490.784 216.892L371.715 203.319L345.35 264.557L464.42 278.129Z" stroke="#2C2929" stroke-width="3.67329" stroke-linecap="round" stroke-linejoin="round"/>
<path d="M442.22 260.215L380.176 253.143L393.914 221.233L455.958 228.306L442.22 260.215Z" fill="#006CC2"/>
<path d="M372.92 210.667L373.504 265.332L340.646 205.672L340.062 151.006L372.92 210.667Z" fill="#FFB400"/>
<path d="M372.92 210.667L373.504 265.332L340.646 205.672L340.062 151.006L372.92 210.667Z" stroke="#2C2929" stroke-width="3.45044" stroke-linecap="round" stroke-linejoin="round"/>
<path d="M369.5 220.1L369.768 245.18L358.533 224.78L358.265 199.701L369.5 220.1Z" fill="white"/>
<path d="M369.5 220.1L369.768 245.18L358.533 224.78L358.265 199.701L369.5 220.1Z" stroke="#2C2929" stroke-width="3.45044"/>
<path d="M354.59 193.029L354.859 218.108L343.624 197.709L343.355 172.629L354.59 193.029Z" fill="white"/>
<path d="M354.59 193.029L354.859 218.108L343.624 197.709L343.355 172.629L354.59 193.029Z" stroke="#2C2929" stroke-width="3.45044"/>
<path d="M490.255 193.571L490.84 248.237L457.982 188.577L457.397 133.911L490.255 193.571Z" fill="#FFB400"/>
<path d="M490.255 193.571L490.84 248.237L457.982 188.577L457.397 133.911L490.255 193.571Z" stroke="#2C2929" stroke-width="3.45044" stroke-linecap="round" stroke-linejoin="round"/>
<path d="M486.835 203.005L487.103 228.085L475.868 207.685L475.6 182.606L486.835 203.005Z" fill="white"/>
<path d="M486.835 203.005L487.103 228.085L475.868 207.685L475.6 182.606L486.835 203.005Z" stroke="#2C2929" stroke-width="3.45044"/>
<path d="M471.925 175.934L472.194 201.013L460.959 180.614L460.69 155.534L471.925 175.934Z" fill="white"/>
<path d="M471.925 175.934L472.194 201.013L460.959 180.614L460.69 155.534L471.925 175.934Z" stroke="#2C2929" stroke-width="3.45044"/>
<path d="M490.059 193.498L490.644 248.163L373.452 265.237L372.867 210.572L490.059 193.498Z" fill="white"/>
<path d="M490.059 193.498L490.644 248.163L373.452 265.237L372.867 210.572L490.059 193.498Z" stroke="#2C2929" stroke-width="4.54986" stroke-linecap="round" stroke-linejoin="round"/>
<path d="M477.423 211.317L477.691 236.396L437.62 242.234L437.352 217.155L477.423 211.317Z" fill="#006CC2"/>
<path d="M424.246 219.064L424.514 244.144L384.443 249.982L384.175 224.903L424.246 219.064Z" fill="#006CC2"/>
<path d="M457.26 134.479L457.833 188.051L340.641 205.125L340.068 151.553L457.26 134.479Z" fill="white"/>
<path d="M457.26 134.479L457.833 188.051L340.641 205.125L340.068 151.553L457.26 134.479Z" stroke="#2C2929" stroke-width="4.50413" stroke-linecap="round" stroke-linejoin="round"/>
<path d="M444.62 151.979L444.883 176.557L404.812 182.395L404.549 157.817L444.62 151.979Z" fill="#006CC2"/>
<path d="M391.444 159.727L391.706 184.304L351.635 190.143L351.373 165.565L391.444 159.727Z" fill="#006CC2"/>
<path d="M399.499 143.918L400.759 198.416L329.893 148.2L328.633 93.7023L399.499 143.918Z" fill="#FFB400"/>
<path d="M399.499 143.918L400.759 198.416L329.893 148.2L328.633 93.7023L399.499 143.918Z" stroke="#2C2929" stroke-width="3.89082" stroke-linecap="round" stroke-linejoin="round"/>
<path d="M392.122 154.335L392.7 179.337L368.469 162.167L367.891 137.165L392.122 154.335Z" fill="white"/>
<path d="M392.122 154.335L392.7 179.337L368.469 162.167L367.891 137.165L392.122 154.335Z" stroke="#2C2929" stroke-width="3.89082"/>
<path d="M359.966 131.549L360.544 156.551L336.313 139.381L335.735 114.379L359.966 131.549Z" fill="white"/>
<path d="M359.966 131.549L360.544 156.551L336.313 139.381L335.735 114.379L359.966 131.549Z" stroke="#2C2929" stroke-width="3.89082"/>
<path d="M499.336 107.048L500.596 161.546L429.73 111.33L428.47 56.8325L499.336 107.048Z" fill="#FFB400"/>
<path d="M499.336 107.048L500.596 161.546L429.73 111.33L428.47 56.8325L499.336 107.048Z" stroke="#2C2929" stroke-width="3.89082" stroke-linecap="round" stroke-linejoin="round"/>
<path d="M491.959 117.465L492.538 142.468L468.307 125.297L467.729 100.295L491.959 117.465Z" fill="white"/>
<path d="M491.959 117.465L492.538 142.468L468.307 125.297L467.729 100.295L491.959 117.465Z" stroke="#2C2929" stroke-width="3.89082"/>
<path d="M459.803 94.6793L460.382 119.682L436.151 102.512L435.573 77.5092L459.803 94.6793Z" fill="white"/>
<path d="M459.803 94.6793L460.382 119.682L436.151 102.512L435.573 77.5092L459.803 94.6793Z" stroke="#2C2929" stroke-width="3.89082"/>
<path d="M499.101 107.014L500.361 161.511L400.646 198.336L399.386 143.838L499.101 107.014Z" fill="white"/>
<path d="M499.101 107.014L500.361 161.511L400.646 198.336L399.386 143.838L499.101 107.014Z" stroke="#2C2929" stroke-width="4.30435" stroke-linecap="round" stroke-linejoin="round"/>
<path d="M488.572 126.942L489.15 151.945L455.055 164.536L454.476 139.534L488.572 126.942Z" fill="#006CC2"/>
<path d="M443.325 143.652L443.903 168.654L409.808 181.246L409.23 156.243L443.325 143.652Z" fill="#006CC2"/>
<path d="M428.36 57.4227L429.595 110.83L329.88 147.655L328.645 94.2474L428.36 57.4227Z" fill="white"/>
<path d="M428.36 57.4227L429.595 110.83L329.88 147.655L328.645 94.2474L428.36 57.4227Z" stroke="#2C2929" stroke-width="4.26108" stroke-linecap="round" stroke-linejoin="round"/>
<path d="M417.824 77.0333L418.391 101.536L384.295 114.127L383.729 89.6246L417.824 77.0333Z" fill="#006CC2"/>
<path d="M372.577 93.7428L373.144 118.245L339.049 130.836L338.482 106.334L372.577 93.7428Z" fill="#006CC2"/>
<path d="M499.596 106.946L427.916 56.1526L327.994 93.0537L399.674 143.847L499.596 106.946Z" fill="white"/>
<path d="M499.596 106.946L427.916 56.1526L327.994 93.0537L399.674 143.847L499.596 106.946Z" stroke="#2C2929" stroke-width="3.97531" stroke-linecap="round" stroke-linejoin="round"/>
<path d="M458.504 103.619L406.437 122.847L369.086 96.3803L421.153 77.152L458.504 103.619Z" fill="#006CC2"/>
</svg>
